<svg xmlns="http://www.w3.org/2000/svg" width="1920" height="1080" viewBox="0 0 1920 1080">
  <defs>
    <linearGradient id="heroGradient" x1="0%" y1="0%" x2="100%" y2="100%">
      <stop offset="0%" style="stop-color:#005c6b"/>
      <stop offset="50%" style="stop-color:#007486"/>
      <stop offset="100%" style="stop-color:#004a56"/>
    </linearGradient>
    <pattern id="dots" x="0" y="0" width="40" height="40" patternUnits="userSpaceOnUse">
      <circle cx="20" cy="20" r="2" fill="rgba(255,255,255,0.1)"/>
    </pattern>
  </defs>
  
  <!-- Background -->
  <rect width="1920" height="1080" fill="url(#heroGradient)"/>
  <rect width="1920" height="1080" fill="url(#dots)"/>
  
  <!-- Abstract shapes representing care -->
  <g opacity="0.1" fill="white">
    <!-- Heart shape -->
    <path transform="translate(1400, 200) scale(3)" d="M12 21.35l-1.45-1.32C5.4 15.36 2 12.28 2 8.5 2 5.42 4.42 3 7.5 3c1.74 0 3.41.81 4.5 2.09C13.09 3.81 14.76 3 16.5 3 19.58 3 22 5.42 22 8.5c0 3.78-3.4 6.86-8.55 11.54L12 21.35z"/>
    
    <!-- House shape -->
    <path transform="translate(200, 600) scale(4)" d="M10 20v-6h4v6h5v-8h3L12 3 2 12h3v8z"/>
    
    <!-- Medical cross -->
    <path transform="translate(1600, 700) scale(2.5)" d="M19 3H5c-1.1 0-2 .9-2 2v14c0 1.1.9 2 2 2h14c1.1 0 2-.9 2-2V5c0-1.1-.9-2-2-2zm-2 10h-4v4h-2v-4H7v-2h4V7h2v4h4v2z"/>
  </g>
  
  <!-- Decorative waves -->
  <path d="M0 800 Q480 700, 960 800 T1920 800 V1080 H0 Z" fill="rgba(255,255,255,0.05)"/>
  <path d="M0 850 Q480 750, 960 850 T1920 850 V1080 H0 Z" fill="rgba(255,255,255,0.03)"/>
</svg>